<svg xmlns="http://www.w3.org/2000/svg" viewBox="0 0 1920 1080" width="1920" height="1080">
  <!-- Universe OS achtergrond (inlogscherm): diepe ruimte met nevels en een planeet, kleuren uit branding/universe.json -->
  <defs>
    <radialGradient id="n1" cx="23%" cy="29%" r="40%"><stop offset="0" stop-color="#6d4395" stop-opacity=".35"/><stop offset="1" stop-color="#6d4395" stop-opacity="0"/></radialGradient>
    <radialGradient id="n2" cx="73%" cy="68%" r="42%"><stop offset="0" stop-color="#155d72" stop-opacity=".42"/><stop offset="1" stop-color="#155d72" stop-opacity="0"/></radialGradient>
    <radialGradient id="p" cx="35%" cy="30%" r="75%"><stop offset="0" stop-color="#9fe9e4"/><stop offset=".42" stop-color="#2f7f86"/><stop offset=".76" stop-color="#0d3a45"/><stop offset="1" stop-color="#030714"/></radialGradient>
    <radialGradient id="glow" cx="50%" cy="50%" r="50%"><stop offset=".6" stop-color="#85ffe3" stop-opacity=".12"/><stop offset="1" stop-color="#85ffe3" stop-opacity="0"/></radialGradient>
  </defs>
  <rect width="1920" height="1080" fill="#050815"/>
  <rect width="1920" height="1080" fill="url(#n1)"/>
  <rect width="1920" height="1080" fill="url(#n2)"/>
  <g fill="#d0e0ff">
    <circle cx="120" cy="90" r="1.2" opacity=".8"/><circle cx="340" cy="210" r=".8" opacity=".5"/><circle cx="610" cy="70" r="1" opacity=".7"/>
    <circle cx="880" cy="160" r=".7" opacity=".4"/><circle cx="1150" cy="60" r="1.4" opacity=".9"/><circle cx="1420" cy="190" r=".8" opacity=".5"/>
    <circle cx="1700" cy="110" r="1.1" opacity=".7"/><circle cx="1850" cy="300" r=".8" opacity=".5"/><circle cx="200" cy="420" r=".9" opacity=".6"/>
    <circle cx="460" cy="560" r="1.3" opacity=".8"/><circle cx="90" cy="760" r=".8" opacity=".5"/><circle cx="380" cy="930" r="1" opacity=".6"/>
    <circle cx="700" cy="1010" r=".7" opacity=".4"/><circle cx="1010" cy="940" r="1.2" opacity=".7"/><circle cx="1290" cy="1030" r=".8" opacity=".5"/>
    <circle cx="1560" cy="880" r="1" opacity=".6"/><circle cx="1800" cy="980" r="1.3" opacity=".8"/><circle cx="1880" cy="620" r=".7" opacity=".4"/>
    <circle cx="1640" cy="470" r=".9" opacity=".6"/><circle cx="760" cy="330" r=".6" opacity=".4"/><circle cx="1230" cy="380" r=".7" opacity=".5"/>
  </g>
  <ellipse cx="1500" cy="300" rx="420" ry="190" fill="none" stroke="#91aac5" stroke-opacity=".12" transform="rotate(-24 1500 300)"/>
  <circle cx="1500" cy="300" r="190" fill="url(#glow)"/>
  <circle cx="1500" cy="300" r="120" fill="url(#p)"/>
  <circle cx="1500" cy="300" r="120" fill="none" stroke="#c7fce7" stroke-opacity=".3" stroke-width="1.5"/>
</svg>
